<svg xmlns="http://www.w3.org/2000/svg" xmlns:xlink="http://www.w3.org/1999/xlink" viewBox="0 0 988.71 707.6"><defs><style>.cls-1{fill:none;}.cls-2{fill:url(#linear-gradient);}.cls-3{fill:#1a1a1a;}.cls-4{fill:#c1272d;}.cls-5{fill:#f2f2f2;}.cls-6{fill:url(#linear-gradient-2);}.cls-7{opacity:0.31;fill:url(#linear-gradient-3);}.cls-8{fill:url(#linear-gradient-4);}.cls-9{fill:gray;}.cls-10{fill:#999;}.cls-11{fill:url(#linear-gradient-5);}.cls-12{fill:#fff;}.cls-13{clip-path:url(#clip-path);}.cls-14{clip-path:url(#clip-path-2);}</style><linearGradient id="linear-gradient" x1="596.42" y1="-1.25" x2="596.54" y2="30.98" gradientUnits="userSpaceOnUse"><stop offset="0" stop-color="#999"/><stop offset="1" stop-color="gray"/></linearGradient><linearGradient id="linear-gradient-2" x1="283.11" y1="594.56" x2="-14.81" y2="594.56" gradientUnits="userSpaceOnUse"><stop offset="0" stop-color="gray"/><stop offset="1" stop-color="#ccc"/></linearGradient><linearGradient id="linear-gradient-3" x1="7.72" y1="693.92" x2="188.21" y2="572.82" gradientUnits="userSpaceOnUse"><stop offset="0.04" stop-color="gray"/><stop offset="1" stop-color="#ccc"/></linearGradient><linearGradient id="linear-gradient-4" x1="239.54" y1="380.92" x2="732.04" y2="380.92" gradientUnits="userSpaceOnUse"><stop offset="0" stop-color="#e6e6e6"/><stop offset="1" stop-color="#999"/></linearGradient><linearGradient id="linear-gradient-5" x1="571.78" y1="279.06" x2="716.02" y2="279.06" gradientTransform="translate(252.13 -303.18) rotate(32.63)" xlink:href="#linear-gradient"/><clipPath id="clip-path"><path class="cls-1" d="M577.68,181l-23.43,42.91S553.71,233,541.71,238s-9.87-10-9.87-10l1.87-41Z"/></clipPath><clipPath id="clip-path-2"><path class="cls-1" d="M562.71,261l-9,15s-2-16-16-11c-10.19,3.64-7.78,12.5-7,17s21,91,32,101,22,32,56,24,48-16,31-40-27-47-40-60S562.71,261,562.71,261Z"/></clipPath></defs><title>Asset 8</title><g id="Layer_2" data-name="Layer 2"><g id="Layer_1-2" data-name="Layer 1"><rect class="cls-2" x="204.26" width="784.45" height="33"/><rect class="cls-3" x="204.26" y="33" width="784.45" height="539"/><rect class="cls-4" x="580.71" y="177" width="139" height="20" rx="10"/><rect class="cls-4" x="799.71" y="177" width="133" height="20" rx="10"/><rect class="cls-5" x="243.2" y="134" width="54.51" height="20" rx="9.82"/><rect class="cls-5" x="302.2" y="134" width="94.51" height="20" rx="9.82"/><rect class="cls-5" x="401.2" y="134" width="128.51" height="20" rx="9.82"/><rect class="cls-5" x="534.2" y="134" width="34.51" height="20" rx="9.82"/><rect class="cls-5" x="302.2" y="220" width="94.51" height="20" rx="9.82"/><rect class="cls-5" x="302.2" y="262.5" width="41.51" height="20" rx="9.82"/><rect class="cls-5" x="357.71" y="262.5" width="408" height="20" rx="9.82"/><rect class="cls-5" x="534.2" y="220" width="34.51" height="20" rx="9.82"/><rect class="cls-5" x="686.2" y="220" width="188.51" height="20" rx="9.82"/><rect class="cls-5" x="402.2" y="220" width="137.51" height="20" rx="9.82"/><rect class="cls-5" x="918.2" y="220" width="34.51" height="20" rx="9.82"/><rect class="cls-5" x="574.2" y="134" width="250.51" height="20" rx="9.82"/><rect class="cls-5" x="725.2" y="177" width="59.51" height="20" rx="9.82"/><rect class="cls-5" x="770.2" y="262.5" width="59.51" height="20" rx="9.82"/><rect class="cls-5" x="833.2" y="262.5" width="115.51" height="20" rx="9.82"/><rect class="cls-5" x="406.2" y="177" width="37.51" height="20" rx="9.82"/><rect class="cls-5" x="500.2" y="177" width="37.51" height="20" rx="9.82"/><path class="cls-6" d="M297.93,565.69s-15.35.83-36.88,17S203,633.4,160.48,657.29C133,672.76,74.91,699.52,51.58,704.66S21,707.71,12.75,702.23A28,28,0,0,1,.67,672.57C3.52,659,23.87,631,44.91,609.92s40.35-38.4,81.05-59.31c29.68-15.24,79.11-32.23,90.08-39.17,25.08-15.83,25.77-29.93,25.77-29.93"/><path class="cls-7" d="M297.93,565.69s-15.35.83-36.88,17S203,633.4,160.48,657.29C133,672.76,74.91,699.52,51.58,704.66S21,707.71,12.75,702.23A28,28,0,0,1,.67,672.57C3.52,659,23.87,631,44.91,609.92s40.35-38.4,81.05-59.31c29.68-15.24,79.11-32.23,90.08-39.17,25.08-15.83,25.77-29.93,25.77-29.93"/><path class="cls-8" d="M701.59,386.43,369,588.75s-34.8,9.79-71.05-23.06-43.83-52.44-48.34-62.51-15.14-45.25-7.15-71.54c7.91-26,14.65-28.82,14.65-28.82l317.4-221.13s21.39-17.57,53.41-6.05C653.63,184.91,734,233.08,732,332.89,731.24,372.27,701.59,386.43,701.59,386.43Z"/><ellipse class="cls-9" cx="643.9" cy="279.06" rx="61.77" ry="109.99" transform="translate(-48.84 391.28) rotate(-32.63)"/><ellipse class="cls-10" cx="643.9" cy="279.06" rx="60.99" ry="108.61" transform="translate(-48.84 391.28) rotate(-32.63)"/><ellipse class="cls-9" cx="643.9" cy="279.06" rx="60.21" ry="107.23" transform="translate(-48.84 391.28) rotate(-32.63)"/><ellipse class="cls-10" cx="643.9" cy="279.06" rx="59.13" ry="105.3" transform="translate(-48.84 391.28) rotate(-32.63)"/><ellipse class="cls-9" cx="643.9" cy="279.06" rx="57.58" ry="102.54" transform="translate(-48.84 391.28) rotate(-32.63)"/><ellipse class="cls-11" cx="643.9" cy="279.06" rx="56.47" ry="100.56" transform="translate(-48.84 391.28) rotate(-32.63)"/><circle class="cls-12" cx="223.21" cy="15.5" r="9.5"/><circle class="cls-12" cx="247.21" cy="15.5" r="9.5"/><circle class="cls-12" cx="272.09" cy="15.5" r="9.5"/><g class="cls-13"><path class="cls-4" d="M574.71,181s-36.19,38.4-17,99c12.55,39.64,36.46,67.06,51.23,81.11a13,13,0,0,1-1.81,20.4l-.08.05A13,13,0,0,1,590.88,380a214.66,214.66,0,0,1-53.17-84c-20.54-60.59,4-92,4-92"/></g><g class="cls-14"><path class="cls-4" d="M574.71,192s-39.82,39.68-17,99c15,39,37.46,61.06,52.23,75.11a13,13,0,0,1-1.81,20.4l-.08.05A13,13,0,0,1,591.88,385c-12.89-12.39-39.17-35-54.17-78-21.07-60.41,4-92,4-92"/></g><path class="cls-4" d="M223.26,186.45l-.82-12.74c-.36-2.48.57-4.71,3.09-4.71h4.24c2.59,0,3.54,2.36,3.06,4.9l-1.43,12.74a4.12,4.12,0,0,1-4.05,3.36h0A4.13,4.13,0,0,1,223.26,186.45Z"/><circle class="cls-4" cx="227.66" cy="196" r="4.5"/><path class="cls-4" d="M223.26,321.45l-.82-12.74c-.36-2.48.57-4.71,3.09-4.71h4.24c2.59,0,3.54,2.36,3.06,4.9l-1.43,12.74a4.12,4.12,0,0,1-4.05,3.36h0A4.13,4.13,0,0,1,223.26,321.45Z"/><circle class="cls-4" cx="227.66" cy="331" r="4.5"/></g></g></svg>