<svg xmlns="http://www.w3.org/2000/svg" xmlns:xlink="http://www.w3.org/1999/xlink" viewBox="0 0 571.33 734.73"><defs><style>.cls-1{fill:url(#linear-gradient);}.cls-2{fill:url(#linear-gradient-2);}.cls-3{fill:url(#linear-gradient-3);}.cls-4{fill:url(#linear-gradient-4);}.cls-5{fill:url(#linear-gradient-5);}.cls-6{fill:url(#linear-gradient-6);}.cls-7{fill:url(#linear-gradient-7);}.cls-8{fill:url(#linear-gradient-8);}.cls-9{fill:url(#linear-gradient-9);}.cls-10{fill:url(#linear-gradient-10);}.cls-11{fill:url(#linear-gradient-11);}.cls-12{fill:url(#linear-gradient-12);}.cls-13{fill:url(#linear-gradient-13);}.cls-14{fill:url(#linear-gradient-14);}.cls-15{fill:url(#linear-gradient-15);}.cls-16{fill:url(#linear-gradient-16);}.cls-17{fill:url(#linear-gradient-17);}.cls-18{fill:url(#linear-gradient-18);}.cls-19{fill:url(#linear-gradient-19);}.cls-20{fill:url(#linear-gradient-20);}.cls-21{fill:url(#linear-gradient-21);}.cls-22{fill:url(#linear-gradient-22);}.cls-23{fill:url(#linear-gradient-23);}.cls-24{fill:url(#linear-gradient-24);}.cls-25{fill:url(#linear-gradient-25);}.cls-26{opacity:0.31;fill:url(#linear-gradient-26);}.cls-27{fill:url(#linear-gradient-27);}.cls-28{fill:gray;}.cls-29{fill:#999;}.cls-30{fill:url(#linear-gradient-28);}</style><linearGradient id="linear-gradient" x1="-3013" y1="509.73" x2="-2618.12" y2="509.73" gradientTransform="matrix(-0.51, 0, 0, 1, -1156.83, 0)" gradientUnits="userSpaceOnUse"><stop offset="0.02" stop-color="#a67c52"/><stop offset="0.6" stop-color="#8c6239"/><stop offset="0.92" stop-color="#754c24"/></linearGradient><linearGradient id="linear-gradient-2" x1="149.02" y1="-142.66" x2="320.88" y2="-142.66" gradientTransform="translate(39.67 305.7) rotate(62.21)" gradientUnits="userSpaceOnUse"><stop offset="0.02" stop-color="#a67c52"/><stop offset="0.92" stop-color="#754c24"/></linearGradient><linearGradient id="linear-gradient-3" x1="45" y1="493.73" x2="230" y2="493.73" gradientUnits="userSpaceOnUse"><stop offset="0.04" stop-color="#754c24"/><stop offset="0.75" stop-color="#996f45"/><stop offset="1" stop-color="#a67c52"/></linearGradient><linearGradient id="linear-gradient-4" x1="186" y1="598.23" x2="384" y2="598.23" gradientUnits="userSpaceOnUse"><stop offset="0.02" stop-color="#8c6239"/><stop offset="0.92" stop-color="#754c24"/></linearGradient><linearGradient id="linear-gradient-5" x1="148.35" y1="518.08" x2="380.64" y2="403.52" gradientUnits="userSpaceOnUse"><stop offset="0.05" stop-color="#a67c52"/><stop offset="1" stop-color="#754c24"/></linearGradient><linearGradient id="linear-gradient-6" x1="107.84" y1="5.22" x2="279.69" y2="-71.45" gradientTransform="translate(39.67 305.7) rotate(62.21)" gradientUnits="userSpaceOnUse"><stop offset="0" stop-color="#754c24"/><stop offset="1" stop-color="#a67c52"/></linearGradient><linearGradient id="linear-gradient-7" x1="45" y1="443.73" x2="286" y2="443.73" gradientTransform="matrix(1, 0, 0, 1, 0, 0)" xlink:href="#linear-gradient-2"/><linearGradient id="linear-gradient-8" x1="-1337" y1="582.23" x2="-1196" y2="582.23" gradientTransform="matrix(-1, 0, 0, 1, -1151, 0)" gradientUnits="userSpaceOnUse"><stop offset="0" stop-color="#a67c52"/><stop offset="0.92" stop-color="#754c24"/></linearGradient><linearGradient id="linear-gradient-9" x1="-3105.47" y1="351.23" x2="-2651.61" y2="351.23" xlink:href="#linear-gradient"/><linearGradient id="linear-gradient-10" x1="92" y1="350.73" x2="277" y2="350.73" xlink:href="#linear-gradient-3"/><linearGradient id="linear-gradient-11" x1="201.43" y1="369.85" x2="440.87" y2="251.76" xlink:href="#linear-gradient-5"/><linearGradient id="linear-gradient-12" x1="31.84" y1="-246.89" x2="278.53" y2="-246.89" xlink:href="#linear-gradient-6"/><linearGradient id="linear-gradient-13" x1="277" y1="411.23" x2="431" y2="411.23" xlink:href="#linear-gradient-4"/><linearGradient id="linear-gradient-14" x1="92" y1="294.73" x2="313" y2="294.73" gradientTransform="matrix(1, 0, 0, 1, 0, 0)" xlink:href="#linear-gradient-2"/><linearGradient id="linear-gradient-15" x1="-7.45" y1="-125.49" x2="157.49" y2="-199.08" xlink:href="#linear-gradient-6"/><linearGradient id="linear-gradient-16" x1="-1428" y1="411.73" x2="-1243" y2="411.73" xlink:href="#linear-gradient-8"/><linearGradient id="linear-gradient-17" x1="61.93" y1="172.52" x2="225.6" y2="172.52" xlink:href="#linear-gradient-3"/><linearGradient id="linear-gradient-18" x1="-2969.2" y1="186.67" x2="-2619.84" y2="186.67" xlink:href="#linear-gradient"/><linearGradient id="linear-gradient-19" x1="24.77" y1="58.39" x2="226.48" y2="58.39" gradientTransform="matrix(1, 0, 0, 1, 0, 0)" xlink:href="#linear-gradient-2"/><linearGradient id="linear-gradient-20" x1="-146.43" y1="-358.62" x2="8.09" y2="-358.62" xlink:href="#linear-gradient-2"/><linearGradient id="linear-gradient-21" x1="186.67" y1="264.97" x2="361.84" y2="264.97" xlink:href="#linear-gradient-4"/><linearGradient id="linear-gradient-22" x1="-1337.67" y1="250.81" x2="-1212.93" y2="250.81" xlink:href="#linear-gradient-8"/><linearGradient id="linear-gradient-23" x1="209.1" y1="255.99" x2="414.6" y2="154.63" xlink:href="#linear-gradient-5"/><linearGradient id="linear-gradient-24" x1="-143.2" y1="-68.98" x2="6.78" y2="-135.89" xlink:href="#linear-gradient-6"/><linearGradient id="linear-gradient-25" x1="147.51" y1="1554.52" x2="-26.29" y2="1554.52" gradientTransform="translate(-884.21 1270.36) rotate(-116.23)" gradientUnits="userSpaceOnUse"><stop offset="0" stop-color="gray"/><stop offset="1" stop-color="#ccc"/></linearGradient><linearGradient id="linear-gradient-26" x1="-13.14" y1="1612.49" x2="92.15" y2="1541.84" gradientTransform="translate(-884.21 1270.36) rotate(-116.23)" gradientUnits="userSpaceOnUse"><stop offset="0.04" stop-color="gray"/><stop offset="1" stop-color="#ccc"/></linearGradient><linearGradient id="linear-gradient-27" x1="122.09" y1="1429.9" x2="409.39" y2="1429.9" gradientTransform="translate(-884.21 1270.36) rotate(-116.23)" gradientUnits="userSpaceOnUse"><stop offset="0" stop-color="#e6e6e6"/><stop offset="1" stop-color="#999"/></linearGradient><linearGradient id="linear-gradient-28" x1="315.9" y1="1370.48" x2="400.04" y2="1370.48" gradientTransform="matrix(0.54, -0.84, 0.84, 0.54, -1160.21, -94.03)" gradientUnits="userSpaceOnUse"><stop offset="0" stop-color="#999"/><stop offset="1" stop-color="gray"/></linearGradient></defs><title>Asset 5</title><g id="Layer_2" data-name="Layer 2"><g id="Layer_1-2" data-name="Layer 1"><polygon class="cls-1" points="384 464.73 230 371.73 230 552.73 374 647.73 384 464.73"/><polygon class="cls-2" points="166 430.73 234 371.73 384 461.73 318 521.73 166 430.73"/><polygon class="cls-3" points="45 429.73 230 371.73 230 552.73 50 615.73 45 429.73"/><polygon class="cls-4" points="186 734.73 374 650.73 384 461.73 186 539.73 186 734.73"/><polygon class="cls-5" points="185 544.73 125 469.73 321 391.73 384 461.73 185 544.73"/><polygon class="cls-6" points="45 429.73 144 411.73 261 478.73 185 544.73 45 429.73"/><polygon class="cls-7" points="87 509.73 45 429.73 227 377.73 286 442.73 87 509.73"/><polygon class="cls-8" points="186 734.73 49.51 615.73 45 429.73 186 539.73 186 734.73"/><polygon class="cls-9" points="431 284.73 254 228.73 277 409.73 421 473.73 431 284.73"/><polygon class="cls-10" points="92 286.73 254 228.73 277 409.73 97 472.73 92 286.73"/><polygon class="cls-11" points="277 342.73 193 351.73 313 286.73 431 284.73 277 342.73"/><polygon class="cls-12" points="186 287.73 254 228.73 431 284.73 338 378.73 186 287.73"/><polygon class="cls-13" points="277 537.73 421 473.73 431 284.73 277 342.73 277 537.73"/><polygon class="cls-14" points="114 360.73 92 286.73 254 228.73 313 293.73 114 360.73"/><polygon class="cls-15" points="92 286.73 149 246.73 330 294.73 277 342.73 92 286.73"/><polygon class="cls-16" points="277 536.73 96.51 472.73 92 286.73 277 341.73 277 536.73"/><polygon class="cls-17" points="61.93 115.89 225.6 64.58 225.6 224.71 66.35 280.45 61.93 115.89"/><polygon class="cls-18" points="361.84 146.86 225.6 64.58 225.6 224.71 352.99 308.76 361.84 146.86"/><polygon class="cls-19" points="61.93 116.78 24.77 46 185.79 0 226.48 64.58 61.93 116.78"/><polygon class="cls-20" points="225.6 65.47 280.45 13.27 422 85.82 360.07 145.97 225.6 65.47"/><polygon class="cls-21" points="186.67 385.73 352.99 311.41 361.84 144.21 186.67 213.21 186.67 385.73"/><polygon class="cls-22" points="186.67 385.73 65.92 280.45 61.93 115.9 186.67 213.21 186.67 385.73"/><polygon class="cls-23" points="245.06 283.99 188.44 213.21 361.84 144.21 417.58 206.13 245.06 283.99"/><polygon class="cls-24" points="0 168.09 61.93 115.89 186.67 213.21 122.09 269.83 0 168.09"/><path class="cls-25" d="M426.15,450.7s4.39,7.82,18.41,14.92,41.5,17.31,65,33.39c15.18,10.41,44.15,33.89,52.86,44.78s9.48,15.2,8.73,20.94a16.31,16.31,0,0,1-12.4,14c-7.86,2-27.75-1.41-44.19-7s-30.5-11.22-51.93-27.12c-15.63-11.6-37.26-33.09-43.72-37-14.75-9-22.31-5.77-22.31-5.77"/><path class="cls-26" d="M426.15,450.7s4.39,7.82,18.41,14.92,41.5,17.31,65,33.39c15.18,10.41,44.15,33.89,52.86,44.78s9.48,15.2,8.73,20.94a16.31,16.31,0,0,1-12.4,14c-7.86,2-27.75-1.41-44.19-7s-30.5-11.22-51.93-27.12c-15.63-11.6-37.26-33.09-43.72-37-14.75-9-22.31-5.77-22.31-5.77"/><path class="cls-27" d="M228.28,285.69,419.89,407.58s14.1,15.68,6.26,43.12S410,487.16,405.9,492.11s-19.78,19.59-35.59,22.19-18.86-.24-18.86-.24L153.9,405s-14.71-6.66-16.93-26.39c-1.78-15.85,2.72-70.3,55.44-95C213.22,273.82,228.28,285.69,228.28,285.69Z"/><ellipse class="cls-28" cx="186.96" cy="343.56" rx="64.16" ry="36.03" transform="translate(-203.77 325.93) rotate(-58.86)"/><ellipse class="cls-29" cx="186.96" cy="343.56" rx="63.36" ry="35.58" transform="translate(-203.77 325.93) rotate(-58.86)"/><ellipse class="cls-28" cx="186.96" cy="343.56" rx="62.55" ry="35.13" transform="translate(-203.77 325.93) rotate(-58.86)"/><ellipse class="cls-29" cx="186.96" cy="343.56" rx="61.43" ry="34.5" transform="matrix(0.52, -0.86, 0.86, 0.52, -203.77, 325.93)"/><ellipse class="cls-28" cx="186.96" cy="343.56" rx="59.82" ry="33.59" transform="translate(-203.77 325.93) rotate(-58.86)"/><ellipse class="cls-30" cx="186.96" cy="343.56" rx="58.66" ry="32.94" transform="translate(-203.77 325.93) rotate(-58.86)"/></g></g></svg>