<svg xmlns="http://www.w3.org/2000/svg" xmlns:xlink="http://www.w3.org/1999/xlink" viewBox="0 0 960.95 816.09"><defs><style>.cls-1{fill:url(#linear-gradient);}.cls-2{fill:#1a1a1a;}.cls-3{fill:#f2f2f2;}.cls-4{fill:#fff;}.cls-5{fill:url(#linear-gradient-2);}.cls-6{fill:#045620;}.cls-7{fill:#89272d;}.cls-8{fill:url(#linear-gradient-3);}.cls-9{opacity:0.31;fill:url(#linear-gradient-4);}.cls-10{fill:url(#linear-gradient-5);}.cls-11{fill:gray;}.cls-12{fill:#999;}.cls-13{fill:url(#linear-gradient-6);}</style><linearGradient id="linear-gradient" x1="220.44" y1="153.49" x2="220.51" y2="171.61" gradientUnits="userSpaceOnUse"><stop offset="0" stop-color="#999"/><stop offset="1" stop-color="gray"/></linearGradient><linearGradient id="linear-gradient-2" x1="740.44" y1="153.49" x2="740.51" y2="171.61" xlink:href="#linear-gradient"/><linearGradient id="linear-gradient-3" x1="377.62" y1="669.4" x2="154.42" y2="669.4" gradientTransform="translate(-207.26 220.35) rotate(-26.23)" gradientUnits="userSpaceOnUse"><stop offset="0" stop-color="gray"/><stop offset="1" stop-color="#ccc"/></linearGradient><linearGradient id="linear-gradient-4" x1="171.31" y1="743.84" x2="306.52" y2="653.11" gradientTransform="translate(-207.26 220.35) rotate(-26.23)" gradientUnits="userSpaceOnUse"><stop offset="0.04" stop-color="gray"/><stop offset="1" stop-color="#ccc"/></linearGradient><linearGradient id="linear-gradient-5" x1="344.98" y1="509.35" x2="713.95" y2="509.35" gradientTransform="translate(-207.26 220.35) rotate(-26.23)" gradientUnits="userSpaceOnUse"><stop offset="0" stop-color="#e6e6e6"/><stop offset="1" stop-color="#999"/></linearGradient><linearGradient id="linear-gradient-6" x1="593.88" y1="433.04" x2="701.95" y2="433.04" gradientTransform="translate(253.22 -391.62) rotate(32.63)" xlink:href="#linear-gradient"/></defs><title>Asset 4</title><g id="Layer_2" data-name="Layer 2"><g id="Layer_1-2" data-name="Layer 1"><rect class="cls-1" y="154.19" width="440.95" height="18.55"/><rect class="cls-2" y="172.74" width="440.95" height="302.98"/><rect class="cls-3" x="21.89" y="229.52" width="30.64" height="11.24" rx="5.62"/><rect class="cls-3" x="55.05" y="229.52" width="53.12" height="11.24" rx="5.62"/><rect class="cls-3" x="110.7" y="229.52" width="72.24" height="11.24" rx="5.62"/><rect class="cls-3" x="185.47" y="229.52" width="19.4" height="11.24" rx="5.62"/><rect class="cls-3" x="55.05" y="277.86" width="53.12" height="11.24" rx="5.62"/><rect class="cls-3" x="55.05" y="301.75" width="23.33" height="11.24" rx="5.62"/><rect class="cls-3" x="86.26" y="301.75" width="229.34" height="11.24" rx="5.62"/><rect class="cls-3" x="185.47" y="277.86" width="19.4" height="11.24" rx="5.62"/><rect class="cls-3" x="270.91" y="277.86" width="105.96" height="11.24" rx="5.62"/><rect class="cls-3" x="111.27" y="277.86" width="77.3" height="11.24" rx="5.62"/><rect class="cls-3" x="401.32" y="277.86" width="19.4" height="11.24" rx="5.62"/><rect class="cls-3" x="207.95" y="229.52" width="140.81" height="11.24" rx="5.62"/><rect class="cls-3" x="292.83" y="253.69" width="33.45" height="11.24" rx="5.62"/><rect class="cls-3" x="318.12" y="301.75" width="33.45" height="11.24" rx="5.62"/><rect class="cls-3" x="353.54" y="301.75" width="64.93" height="11.24" rx="5.62"/><rect class="cls-3" x="113.51" y="253.69" width="21.08" height="11.24" rx="5.62"/><rect class="cls-3" x="166.35" y="253.69" width="21.08" height="11.24" rx="5.62"/><circle class="cls-4" cx="10.65" cy="162.91" r="5.34"/><circle class="cls-4" cx="24.14" cy="162.91" r="5.34"/><circle class="cls-4" cx="38.13" cy="162.91" r="5.34"/><rect class="cls-5" x="520" y="154.19" width="440.95" height="18.55"/><rect class="cls-2" x="520" y="172.74" width="440.95" height="302.98"/><rect class="cls-3" x="541.89" y="229.52" width="30.64" height="11.24" rx="5.62"/><rect class="cls-3" x="575.05" y="229.52" width="53.12" height="11.24" rx="5.62"/><rect class="cls-3" x="630.7" y="301.52" width="72.24" height="11.24" rx="5.62"/><rect class="cls-3" x="705.47" y="229.52" width="19.4" height="11.24" rx="5.62"/><rect class="cls-3" x="542.05" y="277.86" width="53.12" height="11.24" rx="5.62"/><rect class="cls-3" x="575.05" y="301.75" width="23.33" height="11.24" rx="5.62"/><rect class="cls-3" x="606.26" y="277.75" width="229.34" height="11.24" rx="5.62"/><rect class="cls-3" x="705.47" y="277.86" width="19.4" height="11.24" rx="5.62"/><rect class="cls-3" x="790.91" y="277.86" width="105.96" height="11.24" rx="5.62"/><rect class="cls-3" x="542.27" y="253.86" width="77.3" height="11.24" rx="5.62"/><rect class="cls-3" x="727.95" y="229.52" width="140.81" height="11.24" rx="5.62"/><rect class="cls-3" x="573.83" y="374.69" width="33.45" height="11.24" rx="5.62"/><rect class="cls-3" x="575.12" y="323.75" width="33.45" height="11.24" rx="5.62"/><rect class="cls-3" x="574.54" y="343.75" width="64.93" height="11.24" rx="5.62"/><rect class="cls-3" x="622.51" y="253.69" width="21.08" height="11.24" rx="5.62"/><rect class="cls-3" x="686.35" y="253.69" width="21.08" height="11.24" rx="5.62"/><circle class="cls-4" cx="530.65" cy="162.91" r="5.34"/><circle class="cls-4" cx="544.14" cy="162.91" r="5.34"/><circle class="cls-4" cx="558.13" cy="162.91" r="5.34"/><rect class="cls-6" x="151.95" y="82.19" width="78" height="20" rx="10" transform="translate(103.94 -101.17) rotate(40)"/><rect class="cls-6" x="174.37" y="50.48" width="136.58" height="20" rx="10" transform="translate(68.95 240.39) rotate(-60)"/><rect class="cls-7" x="672.37" y="50.48" width="136.58" height="20" rx="10" transform="translate(259.7 -506.01) rotate(45)"/><rect class="cls-7" x="672.37" y="50.48" width="136.58" height="20" rx="10" transform="translate(1307.16 -420.48) rotate(135)"/><path class="cls-8" d="M427.72,629.63s-10,5.64-19.15,23.64-22.23,53.3-42.89,83.43c-13.37,19.5-43.52,56.71-57.5,67.89s-19.53,12.17-26.9,11.22a21,21,0,0,1-17.94-15.93c-2.59-10.09,1.82-35.64,9-56.75s14.41-39.17,34.84-66.69c14.89-20.08,42.48-47.86,47.56-56.15,11.61-18.95,7.41-28.65,7.41-28.65"/><path class="cls-9" d="M427.72,629.63s-10,5.64-19.15,23.64-22.23,53.3-42.89,83.43c-13.37,19.5-43.52,56.71-57.5,67.89s-19.53,12.17-26.9,11.22a21,21,0,0,1-17.94-15.93c-2.59-10.09,1.82-35.64,9-56.75s14.41-39.17,34.84-66.69c14.89-20.08,42.48-47.86,47.56-56.15,11.61-18.95,7.41-28.65,7.41-28.65"/><path class="cls-10" d="M639.65,375.51,483.11,621.6s-20.14,18.1-55.39,8-46.81-20.73-53.18-26-25.16-25.39-28.49-45.7c-3.3-20.13.31-24.22.31-24.22L486.45,280s8.55-18.89,33.89-21.74c20.35-2.29,90.29,3.49,122,71.2C654.89,356.17,639.65,375.51,639.65,375.51Z"/><ellipse class="cls-11" cx="565.33" cy="322.45" rx="46.27" ry="82.4" transform="translate(-3 639.59) rotate(-58.86)"/><ellipse class="cls-12" cx="565.33" cy="322.45" rx="45.69" ry="81.37" transform="translate(-3 639.59) rotate(-58.86)"/><ellipse class="cls-11" cx="565.33" cy="322.45" rx="45.11" ry="80.33" transform="translate(-3 639.59) rotate(-58.86)"/><ellipse class="cls-12" cx="565.33" cy="322.45" rx="44.3" ry="78.89" transform="translate(-3 639.59) rotate(-58.86)"/><ellipse class="cls-11" cx="565.33" cy="322.45" rx="43.14" ry="76.82" transform="translate(-3 639.59) rotate(-58.86)"/><ellipse class="cls-13" cx="565.33" cy="322.45" rx="42.3" ry="75.33" transform="translate(-3 639.59) rotate(-58.86)"/></g></g></svg>